<svg xmlns="http://www.w3.org/2000/svg" xmlns:xlink="http://www.w3.org/1999/xlink" width="1080" zoomAndPan="magnify" viewBox="0 0 810 1012.49997" height="1350" preserveAspectRatio="xMidYMid meet" version="1.0"><defs><clipPath id="8463a73fb5"><path d="M 415.863281 206.738281 L 703 206.738281 L 703 493.1875 L 415.863281 493.1875 Z M 415.863281 206.738281 " clip-rule="nonzero"/></clipPath><clipPath id="26a959a99f"><path d="M 415.863281 206.738281 C 491.304688 206.738281 565.070312 237.292969 618.414062 290.636719 C 671.757812 343.980469 702.3125 417.746094 702.3125 493.1875 L 485.578125 493.1875 C 447.074219 493.1875 415.863281 461.976562 415.863281 423.472656 Z M 415.863281 206.738281 " clip-rule="nonzero"/></clipPath><clipPath id="e75935f4fe"><path d="M 0.863281 0.738281 L 287.332031 0.738281 L 287.332031 287.1875 L 0.863281 287.1875 Z M 0.863281 0.738281 " clip-rule="nonzero"/></clipPath><clipPath id="b1e2e99027"><path d="M 0.863281 0.738281 C 76.304688 0.738281 150.070312 31.292969 203.414062 84.636719 C 256.757812 137.980469 287.3125 211.746094 287.3125 287.1875 L 70.578125 287.1875 C 32.074219 287.1875 0.863281 255.976562 0.863281 217.472656 Z M 0.863281 0.738281 " clip-rule="nonzero"/></clipPath><clipPath id="ba8d45f65e"><rect x="0" width="288" y="0" height="288"/></clipPath><clipPath id="9e68908bc5"><path d="M 437.652344 237.359375 L 672 237.359375 L 672 471.40625 L 437.652344 471.40625 Z M 437.652344 237.359375 " clip-rule="nonzero"/></clipPath><clipPath id="a83e2924e4"><path d="M 437.652344 237.359375 C 499.292969 237.359375 559.566406 262.324219 603.152344 305.910156 C 646.738281 349.496094 671.703125 409.769531 671.703125 471.40625 L 496.875 471.40625 C 481.167969 471.40625 466.105469 465.167969 455 454.0625 C 443.894531 442.957031 437.652344 427.894531 437.652344 412.1875 Z M 437.652344 237.359375 " clip-rule="nonzero"/></clipPath><clipPath id="1ef2b2ddc2"><path d="M 0.652344 0.359375 L 234.867188 0.359375 L 234.867188 234.40625 L 0.652344 234.40625 Z M 0.652344 0.359375 " clip-rule="nonzero"/></clipPath><clipPath id="ae11f68048"><path d="M 0.652344 0.359375 C 62.292969 0.359375 122.566406 25.324219 166.152344 68.910156 C 209.738281 112.496094 234.703125 172.769531 234.703125 234.40625 L 59.875 234.40625 C 44.167969 234.40625 29.105469 228.167969 18 217.0625 C 6.894531 205.957031 0.652344 190.894531 0.652344 175.1875 Z M 0.652344 0.359375 " clip-rule="nonzero"/></clipPath><clipPath id="f4459f0c9a"><rect x="0" width="235" y="0" height="235"/></clipPath><clipPath id="ff6d92d387"><path d="M 415.863281 518.800781 L 702.3125 518.800781 L 702.3125 806 L 415.863281 806 Z M 415.863281 518.800781 " clip-rule="nonzero"/></clipPath><clipPath id="9a922cc157"><path d="M 702.3125 518.800781 C 702.3125 594.242188 671.757812 668.007812 618.414062 721.351562 C 565.070312 774.699219 491.304688 805.253906 415.863281 805.253906 L 415.863281 588.515625 C 415.863281 550.015625 447.074219 518.800781 485.578125 518.800781 Z M 702.3125 518.800781 " clip-rule="nonzero"/></clipPath><clipPath id="321b22190e"><path d="M 0.863281 0.800781 L 287.3125 0.800781 L 287.3125 287.28125 L 0.863281 287.28125 Z M 0.863281 0.800781 " clip-rule="nonzero"/></clipPath><clipPath id="c9d3352135"><path d="M 287.3125 0.800781 C 287.3125 76.242188 256.757812 150.007812 203.414062 203.351562 C 150.070312 256.699219 76.304688 287.253906 0.863281 287.253906 L 0.863281 70.515625 C 0.863281 32.015625 32.074219 0.800781 70.578125 0.800781 Z M 287.3125 0.800781 " clip-rule="nonzero"/></clipPath><clipPath id="6bdc35f9c8"><rect x="0" width="288" y="0" height="288"/></clipPath><clipPath id="cc3e2f3508"><path d="M 437.652344 540.59375 L 671.703125 540.59375 L 671.703125 775 L 437.652344 775 Z M 437.652344 540.59375 " clip-rule="nonzero"/></clipPath><clipPath id="e3631fea83"><path d="M 671.703125 540.59375 C 671.703125 602.230469 646.738281 662.503906 603.152344 706.089844 C 559.566406 749.675781 499.292969 774.640625 437.652344 774.640625 L 437.652344 599.8125 C 437.652344 584.105469 443.894531 569.042969 455 557.9375 C 466.105469 546.832031 481.167969 540.59375 496.875 540.59375 Z M 671.703125 540.59375 " clip-rule="nonzero"/></clipPath><clipPath id="054e0c7382"><path d="M 0.652344 0.59375 L 234.703125 0.59375 L 234.703125 234.816406 L 0.652344 234.816406 Z M 0.652344 0.59375 " clip-rule="nonzero"/></clipPath><clipPath id="3b4863d70a"><path d="M 234.703125 0.59375 C 234.703125 62.230469 209.738281 122.503906 166.152344 166.089844 C 122.566406 209.675781 62.292969 234.640625 0.652344 234.640625 L 0.652344 59.8125 C 0.652344 44.105469 6.894531 29.042969 18 17.9375 C 29.105469 6.832031 44.167969 0.59375 59.875 0.59375 Z M 234.703125 0.59375 " clip-rule="nonzero"/></clipPath><clipPath id="d86b1c2c5c"><rect x="0" width="235" y="0" height="235"/></clipPath><clipPath id="28921d2635"><path d="M 107.675781 206 L 394.125 206 L 394.125 493.1875 L 107.675781 493.1875 Z M 107.675781 206 " clip-rule="nonzero"/></clipPath><clipPath id="7ee1129048"><path d="M 107.675781 493.1875 C 107.675781 417.746094 138.230469 343.980469 191.574219 290.636719 C 244.917969 237.292969 318.6875 206.738281 394.125 206.738281 L 394.125 423.472656 C 394.125 461.976562 362.914062 493.1875 324.410156 493.1875 Z M 107.675781 493.1875 " clip-rule="nonzero"/></clipPath><clipPath id="661798485a"><path d="M 0.675781 0.539062 L 287.125 0.539062 L 287.125 287.1875 L 0.675781 287.1875 Z M 0.675781 0.539062 " clip-rule="nonzero"/></clipPath><clipPath id="0f6045b5d4"><path d="M 0.675781 287.1875 C 0.675781 211.746094 31.230469 137.980469 84.574219 84.636719 C 137.917969 31.292969 211.6875 0.738281 287.125 0.738281 L 287.125 217.472656 C 287.125 255.976562 255.914062 287.1875 217.410156 287.1875 Z M 0.675781 287.1875 " clip-rule="nonzero"/></clipPath><clipPath id="275ec7698b"><rect x="0" width="288" y="0" height="288"/></clipPath><clipPath id="a96adae626"><path d="M 138.296875 237 L 372.34375 237 L 372.34375 471.40625 L 138.296875 471.40625 Z M 138.296875 237 " clip-rule="nonzero"/></clipPath><clipPath id="f25d00abca"><path d="M 138.296875 471.40625 C 138.296875 409.769531 163.261719 349.496094 206.847656 305.910156 C 250.433594 262.324219 310.707031 237.359375 372.34375 237.359375 L 372.34375 412.1875 C 372.34375 427.894531 366.105469 442.957031 355 454.0625 C 343.894531 465.167969 328.832031 471.40625 313.125 471.40625 Z M 138.296875 471.40625 " clip-rule="nonzero"/></clipPath><clipPath id="219ece71b9"><path d="M 0.296875 0.242188 L 234.34375 0.242188 L 234.34375 234.40625 L 0.296875 234.40625 Z M 0.296875 0.242188 " clip-rule="nonzero"/></clipPath><clipPath id="0d8dea6c9b"><path d="M 0.296875 234.40625 C 0.296875 172.769531 25.261719 112.496094 68.847656 68.910156 C 112.433594 25.324219 172.707031 0.359375 234.34375 0.359375 L 234.34375 175.1875 C 234.34375 190.894531 228.105469 205.957031 217 217.0625 C 205.894531 228.167969 190.832031 234.40625 175.125 234.40625 Z M 0.296875 234.40625 " clip-rule="nonzero"/></clipPath><clipPath id="7e67e02485"><rect x="0" width="235" y="0" height="235"/></clipPath><clipPath id="7e974c3ff9"><path d="M 107 518.800781 L 394.125 518.800781 L 394.125 805.253906 L 107 805.253906 Z M 107 518.800781 " clip-rule="nonzero"/></clipPath><clipPath id="acad88350c"><path d="M 394.125 805.253906 C 318.6875 805.253906 244.917969 774.699219 191.574219 721.351562 C 138.230469 668.007812 107.675781 594.242188 107.675781 518.800781 L 324.410156 518.800781 C 362.914062 518.800781 394.125 550.015625 394.125 588.515625 Z M 394.125 805.253906 " clip-rule="nonzero"/></clipPath><clipPath id="c91612cf8a"><path d="M 0.667969 0.800781 L 287.125 0.800781 L 287.125 287.253906 L 0.667969 287.253906 Z M 0.667969 0.800781 " clip-rule="nonzero"/></clipPath><clipPath id="7107b0120a"><path d="M 287.125 287.253906 C 211.6875 287.253906 137.917969 256.699219 84.574219 203.351562 C 31.230469 150.007812 0.675781 76.242188 0.675781 0.800781 L 217.410156 0.800781 C 255.914062 0.800781 287.125 32.015625 287.125 70.515625 Z M 287.125 287.253906 " clip-rule="nonzero"/></clipPath><clipPath id="9254f9232b"><rect x="0" width="288" y="0" height="288"/></clipPath><clipPath id="ad6a6bb4bf"><path d="M 138 540.59375 L 372.34375 540.59375 L 372.34375 774.640625 L 138 774.640625 Z M 138 540.59375 " clip-rule="nonzero"/></clipPath><clipPath id="5f148db65a"><path d="M 372.34375 774.640625 C 310.707031 774.640625 250.433594 749.675781 206.847656 706.089844 C 163.261719 662.503906 138.296875 602.230469 138.296875 540.59375 L 313.125 540.59375 C 328.832031 540.59375 343.894531 546.832031 355 557.9375 C 366.105469 569.042969 372.34375 584.105469 372.34375 599.8125 Z M 372.34375 774.640625 " clip-rule="nonzero"/></clipPath><clipPath id="04bab7c985"><path d="M 0.132812 0.59375 L 234.34375 0.59375 L 234.34375 234.640625 L 0.132812 234.640625 Z M 0.132812 0.59375 " clip-rule="nonzero"/></clipPath><clipPath id="c30359e597"><path d="M 234.34375 234.640625 C 172.707031 234.640625 112.433594 209.675781 68.847656 166.089844 C 25.261719 122.503906 0.296875 62.230469 0.296875 0.59375 L 175.125 0.59375 C 190.832031 0.59375 205.894531 6.832031 217 17.9375 C 228.105469 29.042969 234.34375 44.105469 234.34375 59.8125 Z M 234.34375 234.640625 " clip-rule="nonzero"/></clipPath><clipPath id="296efa98b4"><rect x="0" width="235" y="0" height="235"/></clipPath></defs><g clip-path="url(#8463a73fb5)"><g clip-path="url(#26a959a99f)"><g transform="matrix(1, 0, 0, 1, 415, 206)"><g clip-path="url(#ba8d45f65e)"><g clip-path="url(#e75935f4fe)"><g clip-path="url(#b1e2e99027)"><path fill="#faf8f4" d="M 287.3125 0.738281 L 287.3125 287.1875 L 0.863281 287.1875 L 0.863281 0.738281 Z M 287.3125 0.738281 " fill-opacity="1" fill-rule="nonzero"/></g></g></g></g></g></g><g clip-path="url(#9e68908bc5)"><g clip-path="url(#a83e2924e4)"><g transform="matrix(1, 0, 0, 1, 437, 237)"><g clip-path="url(#f4459f0c9a)"><g clip-path="url(#1ef2b2ddc2)"><g clip-path="url(#ae11f68048)"><path fill="#faf8f4" d="M 234.703125 0.359375 L 234.703125 234.40625 L 0.652344 234.40625 L 0.652344 0.359375 Z M 234.703125 0.359375 " fill-opacity="1" fill-rule="nonzero"/></g></g></g></g></g></g><g clip-path="url(#ff6d92d387)"><g clip-path="url(#9a922cc157)"><g transform="matrix(1, 0, 0, 1, 415, 518)"><g clip-path="url(#6bdc35f9c8)"><g clip-path="url(#321b22190e)"><g clip-path="url(#c9d3352135)"><path fill="#faf8f4" d="M 287.3125 287.253906 L 0.863281 287.253906 L 0.863281 0.800781 L 287.3125 0.800781 Z M 287.3125 287.253906 " fill-opacity="1" fill-rule="nonzero"/></g></g></g></g></g></g><g clip-path="url(#cc3e2f3508)"><g clip-path="url(#e3631fea83)"><g transform="matrix(1, 0, 0, 1, 437, 540)"><g clip-path="url(#d86b1c2c5c)"><g clip-path="url(#054e0c7382)"><g clip-path="url(#3b4863d70a)"><path fill="#faf8f4" d="M 234.703125 234.640625 L 0.652344 234.640625 L 0.652344 0.59375 L 234.703125 0.59375 Z M 234.703125 234.640625 " fill-opacity="1" fill-rule="nonzero"/></g></g></g></g></g></g><g clip-path="url(#28921d2635)"><g clip-path="url(#7ee1129048)"><g transform="matrix(1, 0, 0, 1, 107, 206)"><g clip-path="url(#275ec7698b)"><g clip-path="url(#661798485a)"><g clip-path="url(#0f6045b5d4)"><path fill="#faf8f4" d="M 0.675781 0.738281 L 287.125 0.738281 L 287.125 287.1875 L 0.675781 287.1875 Z M 0.675781 0.738281 " fill-opacity="1" fill-rule="nonzero"/></g></g></g></g></g></g><g clip-path="url(#a96adae626)"><g clip-path="url(#f25d00abca)"><g transform="matrix(1, 0, 0, 1, 138, 237)"><g clip-path="url(#7e67e02485)"><g clip-path="url(#219ece71b9)"><g clip-path="url(#0d8dea6c9b)"><path fill="#faf8f4" d="M 0.296875 0.359375 L 234.34375 0.359375 L 234.34375 234.40625 L 0.296875 234.40625 Z M 0.296875 0.359375 " fill-opacity="1" fill-rule="nonzero"/></g></g></g></g></g></g><g clip-path="url(#7e974c3ff9)"><g clip-path="url(#acad88350c)"><g transform="matrix(1, 0, 0, 1, 107, 518)"><g clip-path="url(#9254f9232b)"><g clip-path="url(#c91612cf8a)"><g clip-path="url(#7107b0120a)"><path fill="#faf8f4" d="M 0.675781 287.253906 L 0.675781 0.800781 L 287.125 0.800781 L 287.125 287.253906 Z M 0.675781 287.253906 " fill-opacity="1" fill-rule="nonzero"/></g></g></g></g></g></g><g clip-path="url(#ad6a6bb4bf)"><g clip-path="url(#5f148db65a)"><g transform="matrix(1, 0, 0, 1, 138, 540)"><g clip-path="url(#296efa98b4)"><g clip-path="url(#04bab7c985)"><g clip-path="url(#c30359e597)"><path fill="#faf8f4" d="M 0.296875 234.640625 L 0.296875 0.59375 L 234.34375 0.59375 L 234.34375 234.640625 Z M 0.296875 234.640625 " fill-opacity="1" fill-rule="nonzero"/></g></g></g></g></g></g></svg>