<svg xmlns="http://www.w3.org/2000/svg" xmlns:xlink="http://www.w3.org/1999/xlink" width="1080" zoomAndPan="magnify" viewBox="0 0 810 1012.49997" height="1350" preserveAspectRatio="xMidYMid meet" version="1.0"><defs><clipPath id="092bb80a56"><path d="M 415.863281 206.738281 L 703 206.738281 L 703 493.1875 L 415.863281 493.1875 Z M 415.863281 206.738281 " clip-rule="nonzero"/></clipPath><clipPath id="b9daef7671"><path d="M 415.863281 206.738281 C 491.304688 206.738281 565.070312 237.292969 618.414062 290.636719 C 671.757812 343.980469 702.3125 417.746094 702.3125 493.1875 L 485.578125 493.1875 C 447.074219 493.1875 415.863281 461.976562 415.863281 423.472656 Z M 415.863281 206.738281 " clip-rule="nonzero"/></clipPath><clipPath id="e4229fbefe"><path d="M 0.863281 0.738281 L 287.332031 0.738281 L 287.332031 287.1875 L 0.863281 287.1875 Z M 0.863281 0.738281 " clip-rule="nonzero"/></clipPath><clipPath id="eedd6c3e85"><path d="M 0.863281 0.738281 C 76.304688 0.738281 150.070312 31.292969 203.414062 84.636719 C 256.757812 137.980469 287.3125 211.746094 287.3125 287.1875 L 70.578125 287.1875 C 32.074219 287.1875 0.863281 255.976562 0.863281 217.472656 Z M 0.863281 0.738281 " clip-rule="nonzero"/></clipPath><clipPath id="42c3f660d6"><rect x="0" width="288" y="0" height="288"/></clipPath><clipPath id="b052901fff"><path d="M 437.652344 237.359375 L 672 237.359375 L 672 471.40625 L 437.652344 471.40625 Z M 437.652344 237.359375 " clip-rule="nonzero"/></clipPath><clipPath id="9bace9cf65"><path d="M 437.652344 237.359375 C 499.292969 237.359375 559.566406 262.324219 603.152344 305.910156 C 646.738281 349.496094 671.703125 409.769531 671.703125 471.40625 L 496.875 471.40625 C 481.167969 471.40625 466.105469 465.167969 455 454.0625 C 443.894531 442.957031 437.652344 427.894531 437.652344 412.1875 Z M 437.652344 237.359375 " clip-rule="nonzero"/></clipPath><clipPath id="96f417a92e"><path d="M 0.652344 0.359375 L 234.867188 0.359375 L 234.867188 234.40625 L 0.652344 234.40625 Z M 0.652344 0.359375 " clip-rule="nonzero"/></clipPath><clipPath id="b3d0303b0f"><path d="M 0.652344 0.359375 C 62.292969 0.359375 122.566406 25.324219 166.152344 68.910156 C 209.738281 112.496094 234.703125 172.769531 234.703125 234.40625 L 59.875 234.40625 C 44.167969 234.40625 29.105469 228.167969 18 217.0625 C 6.894531 205.957031 0.652344 190.894531 0.652344 175.1875 Z M 0.652344 0.359375 " clip-rule="nonzero"/></clipPath><clipPath id="074eab4e22"><rect x="0" width="235" y="0" height="235"/></clipPath><clipPath id="1ff2265b49"><path d="M 415.863281 518.800781 L 702.3125 518.800781 L 702.3125 806 L 415.863281 806 Z M 415.863281 518.800781 " clip-rule="nonzero"/></clipPath><clipPath id="b2c9aa30ff"><path d="M 702.3125 518.800781 C 702.3125 594.242188 671.757812 668.007812 618.414062 721.351562 C 565.070312 774.699219 491.304688 805.253906 415.863281 805.253906 L 415.863281 588.515625 C 415.863281 550.015625 447.074219 518.800781 485.578125 518.800781 Z M 702.3125 518.800781 " clip-rule="nonzero"/></clipPath><clipPath id="65f62a4c86"><path d="M 0.863281 0.800781 L 287.3125 0.800781 L 287.3125 287.28125 L 0.863281 287.28125 Z M 0.863281 0.800781 " clip-rule="nonzero"/></clipPath><clipPath id="fff57ac81a"><path d="M 287.3125 0.800781 C 287.3125 76.242188 256.757812 150.007812 203.414062 203.351562 C 150.070312 256.699219 76.304688 287.253906 0.863281 287.253906 L 0.863281 70.515625 C 0.863281 32.015625 32.074219 0.800781 70.578125 0.800781 Z M 287.3125 0.800781 " clip-rule="nonzero"/></clipPath><clipPath id="5fe927a0ef"><rect x="0" width="288" y="0" height="288"/></clipPath><clipPath id="deef7b8998"><path d="M 437.652344 540.59375 L 671.703125 540.59375 L 671.703125 775 L 437.652344 775 Z M 437.652344 540.59375 " clip-rule="nonzero"/></clipPath><clipPath id="5dfa02cfe6"><path d="M 671.703125 540.59375 C 671.703125 602.230469 646.738281 662.503906 603.152344 706.089844 C 559.566406 749.675781 499.292969 774.640625 437.652344 774.640625 L 437.652344 599.8125 C 437.652344 584.105469 443.894531 569.042969 455 557.9375 C 466.105469 546.832031 481.167969 540.59375 496.875 540.59375 Z M 671.703125 540.59375 " clip-rule="nonzero"/></clipPath><clipPath id="fbb700d2bb"><path d="M 0.652344 0.59375 L 234.703125 0.59375 L 234.703125 234.816406 L 0.652344 234.816406 Z M 0.652344 0.59375 " clip-rule="nonzero"/></clipPath><clipPath id="d50341778a"><path d="M 234.703125 0.59375 C 234.703125 62.230469 209.738281 122.503906 166.152344 166.089844 C 122.566406 209.675781 62.292969 234.640625 0.652344 234.640625 L 0.652344 59.8125 C 0.652344 44.105469 6.894531 29.042969 18 17.9375 C 29.105469 6.832031 44.167969 0.59375 59.875 0.59375 Z M 234.703125 0.59375 " clip-rule="nonzero"/></clipPath><clipPath id="ca6abdb62d"><rect x="0" width="235" y="0" height="235"/></clipPath><clipPath id="853215f669"><path d="M 107.675781 206 L 394.125 206 L 394.125 493.1875 L 107.675781 493.1875 Z M 107.675781 206 " clip-rule="nonzero"/></clipPath><clipPath id="678e0f0a91"><path d="M 107.675781 493.1875 C 107.675781 417.746094 138.230469 343.980469 191.574219 290.636719 C 244.917969 237.292969 318.6875 206.738281 394.125 206.738281 L 394.125 423.472656 C 394.125 461.976562 362.914062 493.1875 324.410156 493.1875 Z M 107.675781 493.1875 " clip-rule="nonzero"/></clipPath><clipPath id="8648ac4439"><path d="M 0.675781 0.539062 L 287.125 0.539062 L 287.125 287.1875 L 0.675781 287.1875 Z M 0.675781 0.539062 " clip-rule="nonzero"/></clipPath><clipPath id="6db67cbd06"><path d="M 0.675781 287.1875 C 0.675781 211.746094 31.230469 137.980469 84.574219 84.636719 C 137.917969 31.292969 211.6875 0.738281 287.125 0.738281 L 287.125 217.472656 C 287.125 255.976562 255.914062 287.1875 217.410156 287.1875 Z M 0.675781 287.1875 " clip-rule="nonzero"/></clipPath><clipPath id="9f30f060af"><rect x="0" width="288" y="0" height="288"/></clipPath><clipPath id="28ac76b0ec"><path d="M 138.296875 237 L 372.34375 237 L 372.34375 471.40625 L 138.296875 471.40625 Z M 138.296875 237 " clip-rule="nonzero"/></clipPath><clipPath id="6507a87dd6"><path d="M 138.296875 471.40625 C 138.296875 409.769531 163.261719 349.496094 206.847656 305.910156 C 250.433594 262.324219 310.707031 237.359375 372.34375 237.359375 L 372.34375 412.1875 C 372.34375 427.894531 366.105469 442.957031 355 454.0625 C 343.894531 465.167969 328.832031 471.40625 313.125 471.40625 Z M 138.296875 471.40625 " clip-rule="nonzero"/></clipPath><clipPath id="ead5941449"><path d="M 0.296875 0.242188 L 234.34375 0.242188 L 234.34375 234.40625 L 0.296875 234.40625 Z M 0.296875 0.242188 " clip-rule="nonzero"/></clipPath><clipPath id="95234a408d"><path d="M 0.296875 234.40625 C 0.296875 172.769531 25.261719 112.496094 68.847656 68.910156 C 112.433594 25.324219 172.707031 0.359375 234.34375 0.359375 L 234.34375 175.1875 C 234.34375 190.894531 228.105469 205.957031 217 217.0625 C 205.894531 228.167969 190.832031 234.40625 175.125 234.40625 Z M 0.296875 234.40625 " clip-rule="nonzero"/></clipPath><clipPath id="394cc166b1"><rect x="0" width="235" y="0" height="235"/></clipPath><clipPath id="872b4a0c78"><path d="M 107 518.800781 L 394.125 518.800781 L 394.125 805.253906 L 107 805.253906 Z M 107 518.800781 " clip-rule="nonzero"/></clipPath><clipPath id="ef07cff476"><path d="M 394.125 805.253906 C 318.6875 805.253906 244.917969 774.699219 191.574219 721.351562 C 138.230469 668.007812 107.675781 594.242188 107.675781 518.800781 L 324.410156 518.800781 C 362.914062 518.800781 394.125 550.015625 394.125 588.515625 Z M 394.125 805.253906 " clip-rule="nonzero"/></clipPath><clipPath id="2279a4ef54"><path d="M 0.667969 0.800781 L 287.125 0.800781 L 287.125 287.253906 L 0.667969 287.253906 Z M 0.667969 0.800781 " clip-rule="nonzero"/></clipPath><clipPath id="3f2c0a3f37"><path d="M 287.125 287.253906 C 211.6875 287.253906 137.917969 256.699219 84.574219 203.351562 C 31.230469 150.007812 0.675781 76.242188 0.675781 0.800781 L 217.410156 0.800781 C 255.914062 0.800781 287.125 32.015625 287.125 70.515625 Z M 287.125 287.253906 " clip-rule="nonzero"/></clipPath><clipPath id="d5ec259c01"><rect x="0" width="288" y="0" height="288"/></clipPath><clipPath id="7b1e203bef"><path d="M 138 540.59375 L 372.34375 540.59375 L 372.34375 774.640625 L 138 774.640625 Z M 138 540.59375 " clip-rule="nonzero"/></clipPath><clipPath id="bbcef810fd"><path d="M 372.34375 774.640625 C 310.707031 774.640625 250.433594 749.675781 206.847656 706.089844 C 163.261719 662.503906 138.296875 602.230469 138.296875 540.59375 L 313.125 540.59375 C 328.832031 540.59375 343.894531 546.832031 355 557.9375 C 366.105469 569.042969 372.34375 584.105469 372.34375 599.8125 Z M 372.34375 774.640625 " clip-rule="nonzero"/></clipPath><clipPath id="66c5d53af4"><path d="M 0.132812 0.59375 L 234.34375 0.59375 L 234.34375 234.640625 L 0.132812 234.640625 Z M 0.132812 0.59375 " clip-rule="nonzero"/></clipPath><clipPath id="a30cf9929a"><path d="M 234.34375 234.640625 C 172.707031 234.640625 112.433594 209.675781 68.847656 166.089844 C 25.261719 122.503906 0.296875 62.230469 0.296875 0.59375 L 175.125 0.59375 C 190.832031 0.59375 205.894531 6.832031 217 17.9375 C 228.105469 29.042969 234.34375 44.105469 234.34375 59.8125 Z M 234.34375 234.640625 " clip-rule="nonzero"/></clipPath><clipPath id="fe48e23e37"><rect x="0" width="235" y="0" height="235"/></clipPath></defs><g clip-path="url(#092bb80a56)"><g clip-path="url(#b9daef7671)"><g transform="matrix(1, 0, 0, 1, 415, 206)"><g clip-path="url(#42c3f660d6)"><g clip-path="url(#e4229fbefe)"><g clip-path="url(#eedd6c3e85)"><path fill="#121b2e" d="M 287.3125 0.738281 L 287.3125 287.1875 L 0.863281 287.1875 L 0.863281 0.738281 Z M 287.3125 0.738281 " fill-opacity="1" fill-rule="nonzero"/></g></g></g></g></g></g><g clip-path="url(#b052901fff)"><g clip-path="url(#9bace9cf65)"><g transform="matrix(1, 0, 0, 1, 437, 237)"><g clip-path="url(#074eab4e22)"><g clip-path="url(#96f417a92e)"><g clip-path="url(#b3d0303b0f)"><path fill="#121b2e" d="M 234.703125 0.359375 L 234.703125 234.40625 L 0.652344 234.40625 L 0.652344 0.359375 Z M 234.703125 0.359375 " fill-opacity="1" fill-rule="nonzero"/></g></g></g></g></g></g><g clip-path="url(#1ff2265b49)"><g clip-path="url(#b2c9aa30ff)"><g transform="matrix(1, 0, 0, 1, 415, 518)"><g clip-path="url(#5fe927a0ef)"><g clip-path="url(#65f62a4c86)"><g clip-path="url(#fff57ac81a)"><path fill="#121b2e" d="M 287.3125 287.253906 L 0.863281 287.253906 L 0.863281 0.800781 L 287.3125 0.800781 Z M 287.3125 287.253906 " fill-opacity="1" fill-rule="nonzero"/></g></g></g></g></g></g><g clip-path="url(#deef7b8998)"><g clip-path="url(#5dfa02cfe6)"><g transform="matrix(1, 0, 0, 1, 437, 540)"><g clip-path="url(#ca6abdb62d)"><g clip-path="url(#fbb700d2bb)"><g clip-path="url(#d50341778a)"><path fill="#121b2e" d="M 234.703125 234.640625 L 0.652344 234.640625 L 0.652344 0.59375 L 234.703125 0.59375 Z M 234.703125 234.640625 " fill-opacity="1" fill-rule="nonzero"/></g></g></g></g></g></g><g clip-path="url(#853215f669)"><g clip-path="url(#678e0f0a91)"><g transform="matrix(1, 0, 0, 1, 107, 206)"><g clip-path="url(#9f30f060af)"><g clip-path="url(#8648ac4439)"><g clip-path="url(#6db67cbd06)"><path fill="#121b2e" d="M 0.675781 0.738281 L 287.125 0.738281 L 287.125 287.1875 L 0.675781 287.1875 Z M 0.675781 0.738281 " fill-opacity="1" fill-rule="nonzero"/></g></g></g></g></g></g><g clip-path="url(#28ac76b0ec)"><g clip-path="url(#6507a87dd6)"><g transform="matrix(1, 0, 0, 1, 138, 237)"><g clip-path="url(#394cc166b1)"><g clip-path="url(#ead5941449)"><g clip-path="url(#95234a408d)"><path fill="#121b2e" d="M 0.296875 0.359375 L 234.34375 0.359375 L 234.34375 234.40625 L 0.296875 234.40625 Z M 0.296875 0.359375 " fill-opacity="1" fill-rule="nonzero"/></g></g></g></g></g></g><g clip-path="url(#872b4a0c78)"><g clip-path="url(#ef07cff476)"><g transform="matrix(1, 0, 0, 1, 107, 518)"><g clip-path="url(#d5ec259c01)"><g clip-path="url(#2279a4ef54)"><g clip-path="url(#3f2c0a3f37)"><path fill="#121b2e" d="M 0.675781 287.253906 L 0.675781 0.800781 L 287.125 0.800781 L 287.125 287.253906 Z M 0.675781 287.253906 " fill-opacity="1" fill-rule="nonzero"/></g></g></g></g></g></g><g clip-path="url(#7b1e203bef)"><g clip-path="url(#bbcef810fd)"><g transform="matrix(1, 0, 0, 1, 138, 540)"><g clip-path="url(#fe48e23e37)"><g clip-path="url(#66c5d53af4)"><g clip-path="url(#a30cf9929a)"><path fill="#121b2e" d="M 0.296875 234.640625 L 0.296875 0.59375 L 234.34375 0.59375 L 234.34375 234.640625 Z M 0.296875 234.640625 " fill-opacity="1" fill-rule="nonzero"/></g></g></g></g></g></g></svg>