<svg xmlns="http://www.w3.org/2000/svg" xmlns:xlink="http://www.w3.org/1999/xlink" width="1587" zoomAndPan="magnify" viewBox="0 0 1190.25 842.249979" height="1123" preserveAspectRatio="xMidYMid meet" version="1.0"><defs><clipPath id="86accdba4e"><path d="M 1 0.644531 L 726.164062 0.644531 L 726.164062 598.460938 L 1 598.460938 Z M 1 0.644531 " clip-rule="nonzero"/></clipPath><clipPath id="bdee429dc5"><rect x="0" width="727" y="0" height="599"/></clipPath></defs><g transform="matrix(1, 0, 0, 1, 231, 121)"><g clip-path="url(#bdee429dc5)"><g clip-path="url(#86accdba4e)"><path fill="#16354b" d="M 650.402344 435.054688 L 626.46875 554.460938 C 620.878906 582.347656 595.464844 598.359375 567.527344 598.292969 L 150.3125 597.296875 C 124.320312 597.238281 105.214844 572.566406 100.4375 549.089844 L 43.03125 266.945312 C 18.40625 266.894531 3.425781 251.863281 1.238281 231.980469 C -0.90625 212.488281 13.039062 194.566406 34.289062 191.015625 C 45.140625 189.207031 55.160156 191.765625 66.027344 189.070312 C 52.71875 171.324219 48.742188 148.960938 58.136719 129.0625 C 67.535156 109.164062 86.15625 96.21875 110.300781 96.199219 L 219.847656 96.09375 C 213.386719 80.929688 223.28125 69.65625 224.617188 57.550781 C 225.796875 46.832031 211.636719 36.234375 218.316406 24.453125 C 224.707031 13.1875 232.027344 1.601562 248.339844 1.546875 L 516.75 0.644531 C 553.039062 0.523438 582.535156 24.742188 580.632812 62.328125 C 580.054688 73.855469 572.78125 84.394531 568.261719 95.089844 C 580.441406 97.339844 591.863281 95.164062 604.082031 96.160156 C 637.125 98.863281 661.402344 123.042969 668.476562 154.566406 C 671.171875 166.574219 673.324219 177.613281 677.109375 190.171875 C 702.925781 187.648438 726.289062 203.640625 726.453125 230.25 C 726.550781 245.675781 715.5625 260.214844 701.582031 265.425781 C 696.519531 267.308594 686.757812 265.894531 683.871094 271.214844 L 650.390625 435.0625 Z M 250.757812 96.25 L 531.144531 95.367188 C 548.183594 95.3125 562.285156 74.792969 563.363281 59.984375 C 564.742188 40.84375 550.039062 21.683594 531.46875 19.710938 C 499.515625 16.320312 469.257812 18.484375 437.167969 18.464844 L 252 18.324219 C 243.019531 18.324219 235.574219 25.195312 235.386719 32.136719 C 235.261719 36.894531 240.199219 47.722656 247.5 47.738281 L 513.390625 48.347656 C 521.398438 48.359375 525.242188 50.574219 525.421875 58.011719 C 525.539062 62.765625 520.277344 66.292969 513.121094 66.308594 L 252.175781 66.761719 C 243.605469 66.777344 236.714844 73.21875 236.054688 79.808594 C 235.523438 85.109375 240.28125 96.292969 250.765625 96.265625 Z M 120.007812 143.164062 L 375.164062 143.367188 C 384.84375 143.375 395.472656 138.792969 396.339844 128.738281 C 397.058594 120.4375 387.832031 113.410156 379.046875 113.402344 L 114.226562 113.3125 C 91.171875 113.304688 72.386719 126.390625 70.746094 148.597656 C 69.292969 168.253906 83.664062 190.394531 106.714844 190.40625 L 381.746094 190.609375 C 389.527344 190.609375 395.09375 182.316406 395.878906 177.621094 C 396.644531 173.0625 391.695312 161.675781 384.589844 161.65625 L 114.554688 160.816406 C 107.539062 160.792969 105.511719 153.132812 107.347656 148.851562 C 108.625 145.851562 112.238281 143.144531 120.007812 143.152344 Z M 656.847656 191.601562 C 655.125 153.03125 639.613281 113.527344 597.007812 113.550781 L 458.859375 113.617188 C 430.890625 113.632812 414.917969 131.882812 405.617188 155.128906 C 413.152344 165.410156 414.636719 176.136719 412.667969 190.230469 C 481.679688 144.367188 585.429688 155.160156 656.847656 191.601562 Z M 561.597656 300.226562 C 586.203125 270.011719 600.023438 232.269531 627.378906 196.835938 C 581.578125 177.25 492.292969 167.027344 444.976562 193.554688 C 460.742188 206.078125 472.171875 215.308594 481.667969 229.738281 L 513.003906 277.351562 C 521.851562 290.800781 545.792969 319.628906 561.605469 300.226562 Z M 473.167969 249.238281 C 463.570312 228.894531 450.441406 217.070312 432.929688 208.453125 L 38.289062 208.601562 C 25.8125 208.601562 19.125 219.652344 18.777344 228.765625 C 18.503906 235.839844 22.585938 249.058594 34.527344 249.058594 L 473.175781 249.238281 Z M 691.121094 249.066406 C 702.0625 248.695312 708.867188 237.800781 708.9375 228.449219 C 709.152344 198.222656 647.710938 208.371094 642.082031 211.050781 C 628.375 217.574219 622.628906 236.789062 615.800781 248.496094 C 643.925781 250.261719 666.222656 249.921875 691.128906 249.074219 Z M 665.707031 267.074219 C 641.703125 267.019531 624.128906 265.601562 605.023438 267.621094 C 598.847656 273.996094 589.445312 286.585938 589.453125 295.1875 C 595.605469 306.300781 602.894531 314.664062 600.578125 328.691406 L 590.796875 387.890625 C 588.078125 404.316406 573.488281 413.230469 558.796875 411.96875 C 544.355469 410.730469 530.371094 399.738281 532.128906 382.628906 L 538.304688 322.449219 C 503.441406 304.273438 505.46875 291.460938 483.015625 266.820312 L 63.214844 266.894531 C 63.332031 285.472656 68.863281 301.371094 72.246094 318.722656 L 92.457031 422.355469 L 117.402344 546.113281 C 121.324219 565.550781 136.152344 581.421875 158.1875 581.414062 L 567.238281 581.265625 C 583.089844 581.265625 600.304688 573.449219 605.523438 559.152344 C 612.222656 540.777344 615.273438 522.316406 619.132812 503.203125 L 653.871094 331.199219 L 665.707031 267.082031 Z M 574.90625 380.605469 L 583.089844 328.441406 C 584.101562 321.988281 583.671875 314.195312 577.050781 310.730469 C 573.515625 316.074219 560.648438 319.167969 557.632812 325.128906 C 551.671875 342.640625 552.617188 361.054688 549.179688 379.097656 C 547.234375 389.296875 553.230469 395.433594 562.367188 394.667969 C 568.453125 394.15625 573.316406 390.773438 574.914062 380.605469 Z M 574.90625 380.605469 " fill-opacity="1" fill-rule="nonzero"/></g><path fill="#16354b" d="M 392.976562 526.160156 C 392.605469 542.652344 377.800781 552.941406 366.226562 553.296875 C 351.738281 553.742188 336.992188 544.136719 335.617188 527.667969 C 333.742188 505.058594 333.769531 482.71875 333.910156 460.386719 C 334 446.253906 344.160156 436.09375 357.328125 433.878906 C 377.925781 430.421875 394.796875 444.925781 394.320312 466.035156 L 392.96875 526.160156 Z M 376.136719 466.003906 C 375.921875 456.859375 370.902344 450.675781 363.089844 451.0625 C 356.183594 451.40625 351.101562 457.261719 351.339844 466.308594 L 352.832031 524.105469 C 353.039062 532.113281 359.578125 536.566406 366.085938 535.722656 C 380.921875 533.800781 376.632812 486.683594 376.144531 466.003906 Z M 376.136719 466.003906 " fill-opacity="1" fill-rule="nonzero"/><path fill="#16354b" d="M 295.871094 379.082031 C 296.613281 396.050781 286.570312 408.980469 271.691406 411.242188 C 256.066406 413.625 240.375 405.179688 236.539062 387.78125 C 232.210938 368.171875 231.128906 348.53125 229.8125 327.875 C 228.679688 310.011719 241.542969 295.613281 258.203125 293.75 C 273.277344 292.0625 289.59375 303.714844 292.160156 321.121094 C 295.039062 340.621094 295.011719 359.457031 295.863281 379.066406 Z M 278.585938 385.019531 C 277.726562 358.144531 281.042969 305.847656 258.027344 310.773438 C 250.707031 312.339844 247.671875 319.90625 248.308594 328.171875 L 252.503906 382.40625 C 253.140625 390.683594 258.851562 394.667969 264.652344 394.742188 C 269.773438 394.808594 278.882812 394.296875 278.585938 385.019531 Z M 278.585938 385.019531 " fill-opacity="1" fill-rule="nonzero"/><path fill="#16354b" d="M 498.078125 328.277344 C 495.710938 366.96875 499.835938 409.277344 464.066406 411.671875 C 449.699219 412.636719 434.058594 403.101562 433.234375 386.394531 C 432.175781 364.980469 433.777344 344.199219 435.476562 323.171875 C 436.867188 305.996094 452.75 293.4375 467.898438 293.777344 C 485.273438 294.171875 499.242188 309.328125 498.085938 328.269531 Z M 477.027344 384.476562 L 480.84375 324.328125 C 481.382812 315.820312 473.976562 310.996094 467.867188 310.671875 C 445.191406 309.445312 453.433594 369.582031 450.6875 390.15625 C 459.601562 397.460938 471.46875 395.65625 477.027344 384.476562 Z M 477.027344 384.476562 " fill-opacity="1" fill-rule="nonzero"/><path fill="#16354b" d="M 570.675781 529.433594 C 568.082031 545.933594 553.171875 553.800781 540.414062 553.089844 C 526.460938 552.308594 512.15625 540.488281 513.953125 524.222656 L 520.765625 462.695312 C 522.117188 450.484375 530.035156 441.230469 537.726562 437.371094 C 548.824219 431.800781 560.640625 431.800781 570.308594 439.054688 C 581.140625 447.167969 581.457031 460.625 579.433594 473.546875 L 570.667969 529.449219 Z M 554.960938 524.230469 L 562.953125 465.367188 C 564.03125 457.453125 560.386719 451.457031 553.394531 450.144531 C 548.496094 449.222656 540.300781 453.066406 539.375 460.554688 L 531.484375 524.210938 C 530.476562 532.375 537.898438 536.796875 544.058594 535.929688 C 547.945312 535.378906 553.953125 531.585938 554.953125 524.222656 Z M 554.960938 524.230469 " fill-opacity="1" fill-rule="nonzero"/><path fill="#16354b" d="M 395.664062 325.113281 C 396.226562 359.671875 402.714844 414.398438 362.710938 411.785156 C 349.195312 410.902344 335.039062 400.296875 333.949219 384.160156 C 332.539062 363.257812 332.160156 342.667969 333.199219 321.464844 C 334.058594 303.886719 350.542969 292.507812 365.648438 293.703125 C 381.957031 294.996094 395.375 307.242188 395.671875 325.109375 Z M 376.542969 320.066406 C 375.277344 312.414062 365.070312 309.015625 359.925781 311.132812 C 355.234375 313.0625 350.828125 317.996094 350.902344 325.070312 L 351.507812 382.296875 C 351.605469 391.003906 359.429688 395.457031 366.125 394.425781 C 384.425781 391.609375 378.207031 330.109375 376.539062 320.066406 Z M 376.542969 320.066406 " fill-opacity="1" fill-rule="nonzero"/><path fill="#16354b" d="M 170.367188 411.449219 C 152.015625 412.542969 139.136719 401.320312 136.703125 385.523438 L 128.996094 335.4375 C 127.757812 327.371094 126.390625 318.761719 129.636719 311.199219 C 135.074219 298.527344 149.460938 292.300781 161.394531 293.835938 C 174.011719 295.464844 185.621094 304.902344 188.515625 318.910156 C 192.886719 340.054688 194.890625 360.882812 196.4375 382.726562 C 197.476562 397.472656 186.914062 410.464844 170.367188 411.441406 Z M 179.113281 384.605469 C 175.066406 354.605469 175.773438 302.980469 153.246094 311.472656 C 148.976562 313.082031 143.847656 318.671875 144.894531 326.058594 L 152.957031 382.695312 C 154.113281 390.839844 160.1875 394.75 166.65625 394.59375 C 170.449219 394.503906 180.292969 393.347656 179.113281 384.605469 Z M 179.113281 384.605469 " fill-opacity="1" fill-rule="nonzero"/><path fill="#16354b" d="M 214.5 520.863281 C 216.207031 536.804688 205.128906 550.441406 191.929688 552.679688 C 175.996094 555.390625 159.753906 545.542969 157.136719 528.460938 L 147.546875 465.878906 C 146.105469 456.488281 148.964844 448.167969 154.039062 442.527344 C 160.066406 435.839844 168.890625 432.167969 179.855469 433.777344 C 192.5625 435.648438 202.953125 445.765625 205.78125 458.566406 C 210.324219 479.15625 212.222656 499.628906 214.5 520.863281 Z M 182.179688 534.660156 C 187.351562 537.734375 191.96875 535.179688 193.792969 533.496094 C 195.441406 531.980469 197.585938 528.507812 197.082031 524.171875 L 190.007812 462.917969 C 189.25 456.378906 183.757812 453.164062 180.433594 451.632812 C 177.109375 450.105469 165.738281 450.632812 165.550781 456.535156 C 164.867188 477.835938 170.027344 498.46875 172.34375 519.917969 C 172.953125 525.539062 176.386719 531.207031 182.183594 534.652344 Z M 182.179688 534.660156 " fill-opacity="1" fill-rule="nonzero"/><path fill="#16354b" d="M 305.140625 525.546875 C 301.808594 542.277344 290.054688 553.082031 275.492188 553.195312 C 261.640625 553.304688 248.753906 542.207031 246.824219 526.382812 C 244.242188 505.246094 242.707031 484.269531 241.621094 462.558594 C 240.777344 445.511719 253.757812 433.027344 269.910156 433.257812 C 313.832031 433.886719 297.585938 492.175781 305.140625 525.546875 Z M 282.527344 461.070312 C 281.695312 453.195312 274.148438 449.527344 268.378906 450.550781 C 263.621094 451.398438 258.09375 455.449219 258.292969 462.523438 C 258.902344 484.402344 260.808594 505.148438 264 526.398438 C 265.046875 533.390625 270.917969 535.964844 275.558594 535.972656 C 292.910156 536.019531 284.785156 482.546875 282.527344 461.0625 Z M 282.527344 461.070312 " fill-opacity="1" fill-rule="nonzero"/><path fill="#16354b" d="M 487.078125 466.300781 C 483.402344 508.851562 489.757812 550.664062 453.238281 553.03125 C 439.886719 553.898438 424.523438 542.863281 424.996094 527.328125 L 426.964844 462.855469 C 427.476562 445.980469 439.203125 434.371094 455.355469 433.382812 C 475.054688 432.179688 488.785156 446.542969 487.078125 466.308594 Z M 465.121094 522.152344 L 469.886719 466.367188 C 470.71875 456.613281 465.589844 450.433594 456.957031 450.789062 C 451.539062 451.011719 444.859375 454.0625 444.40625 462.738281 L 441.179688 524.253906 C 440.734375 532.679688 447.53125 535.898438 453.4375 536.070312 C 460.148438 536.261719 464.269531 532.113281 465.121094 522.152344 Z M 465.121094 522.152344 " fill-opacity="1" fill-rule="nonzero"/></g></g></svg>