<svg xmlns="http://www.w3.org/2000/svg" xmlns:xlink="http://www.w3.org/1999/xlink" width="1587" zoomAndPan="magnify" viewBox="0 0 1190.25 842.249979" height="1123" preserveAspectRatio="xMidYMid meet" version="1.0"><defs><clipPath id="1384971b53"><path d="M 0.945312 0.90625 L 128.300781 0.90625 L 128.300781 105.785156 L 0.945312 105.785156 Z M 0.945312 0.90625 " clip-rule="nonzero"/></clipPath><clipPath id="29ba874ec1"><rect x="0" width="129" y="0" height="107"/></clipPath></defs><g transform="matrix(1, 0, 0, 1, 530, 367)"><g clip-path="url(#29ba874ec1)"><g clip-path="url(#1384971b53)"><path fill="#16354b" d="M 115.164062 77.3125 L 110.953125 98.3125 C 109.972656 103.21875 105.5 106.03125 100.589844 106.019531 L 27.207031 105.847656 C 22.636719 105.835938 19.277344 101.496094 18.433594 97.367188 L 8.339844 47.742188 C 4.007812 47.734375 1.375 45.089844 0.988281 41.59375 C 0.609375 38.164062 3.0625 35.011719 6.800781 34.390625 C 8.710938 34.070312 10.472656 34.519531 12.382812 34.046875 C 10.042969 30.925781 9.34375 26.992188 10.996094 23.492188 C 12.648438 19.992188 15.921875 17.714844 20.171875 17.710938 L 39.4375 17.695312 C 38.300781 15.027344 40.042969 13.042969 40.277344 10.914062 C 40.484375 9.03125 37.992188 7.164062 39.167969 5.09375 C 40.292969 3.113281 41.578125 1.074219 44.449219 1.066406 L 91.65625 0.90625 C 98.039062 0.886719 103.226562 5.144531 102.894531 11.753906 C 102.792969 13.78125 101.511719 15.636719 100.71875 17.519531 C 102.859375 17.914062 104.867188 17.53125 107.015625 17.707031 C 112.828125 18.179688 117.097656 22.433594 118.34375 27.976562 C 118.816406 30.089844 119.195312 32.03125 119.863281 34.242188 C 124.402344 33.796875 128.511719 36.609375 128.539062 41.289062 C 128.558594 44.003906 126.625 46.558594 124.164062 47.476562 C 123.273438 47.808594 121.558594 47.558594 121.050781 48.496094 L 115.160156 77.3125 Z M 44.875 17.722656 L 94.1875 17.566406 C 97.1875 17.558594 99.667969 13.949219 99.855469 11.34375 C 100.097656 7.976562 97.511719 4.605469 94.246094 4.257812 C 88.625 3.664062 83.304688 4.042969 77.660156 4.039062 L 45.09375 4.015625 C 43.511719 4.015625 42.203125 5.222656 42.171875 6.445312 C 42.148438 7.28125 43.015625 9.1875 44.300781 9.1875 L 91.066406 9.296875 C 92.476562 9.296875 93.152344 9.6875 93.183594 10.996094 C 93.203125 11.832031 92.277344 12.453125 91.019531 12.457031 L 45.125 12.535156 C 43.617188 12.539062 42.40625 13.671875 42.289062 14.828125 C 42.195312 15.761719 43.03125 17.730469 44.875 17.722656 Z M 21.878906 25.972656 L 66.753906 26.007812 C 68.457031 26.007812 70.328125 25.203125 70.480469 23.433594 C 70.605469 21.976562 68.984375 20.738281 67.4375 20.738281 L 20.859375 20.722656 C 16.804688 20.722656 13.5 23.023438 13.214844 26.929688 C 12.957031 30.386719 15.484375 34.28125 19.539062 34.28125 L 67.914062 34.316406 C 69.28125 34.316406 70.261719 32.859375 70.398438 32.03125 C 70.53125 31.230469 69.660156 29.230469 68.414062 29.226562 L 20.917969 29.078125 C 19.683594 29.074219 19.328125 27.726562 19.652344 26.972656 C 19.875 26.445312 20.511719 25.96875 21.878906 25.96875 Z M 116.296875 34.492188 C 115.996094 27.707031 113.265625 20.761719 105.773438 20.765625 L 81.476562 20.777344 C 76.554688 20.777344 73.746094 23.988281 72.109375 28.078125 C 73.4375 29.886719 73.695312 31.773438 73.351562 34.25 C 85.488281 26.183594 103.738281 28.082031 116.296875 34.492188 Z M 99.542969 53.597656 C 103.871094 48.28125 106.304688 41.644531 111.113281 35.414062 C 103.058594 31.96875 87.355469 30.171875 79.035156 34.835938 C 81.804688 37.039062 83.816406 38.660156 85.488281 41.199219 L 91 49.574219 C 92.554688 51.941406 96.765625 57.011719 99.546875 53.597656 Z M 83.992188 44.628906 C 82.304688 41.050781 79.996094 38.972656 76.914062 37.457031 L 7.503906 37.480469 C 5.308594 37.480469 4.132812 39.425781 4.074219 41.027344 C 4.023438 42.273438 4.742188 44.597656 6.84375 44.597656 Z M 122.324219 44.597656 C 124.25 44.535156 125.449219 42.617188 125.460938 40.972656 C 125.496094 35.65625 114.691406 37.441406 113.699219 37.914062 C 111.289062 39.058594 110.28125 42.441406 109.078125 44.5 C 114.023438 44.808594 117.945312 44.75 122.328125 44.601562 Z M 117.855469 47.765625 C 113.632812 47.757812 110.542969 47.507812 107.183594 47.863281 C 106.097656 48.984375 104.441406 51.199219 104.445312 52.710938 C 105.527344 54.664062 106.808594 56.136719 106.402344 58.605469 L 104.679688 69.015625 C 104.203125 71.90625 101.636719 73.472656 99.054688 73.25 C 96.511719 73.03125 94.054688 71.097656 94.363281 68.089844 L 95.449219 57.507812 C 89.316406 54.308594 89.671875 52.054688 85.722656 47.722656 L 11.886719 47.734375 C 11.910156 51.003906 12.882812 53.796875 13.476562 56.851562 L 17.03125 75.078125 L 21.417969 96.84375 C 22.109375 100.261719 24.71875 103.054688 28.59375 103.054688 L 100.535156 103.027344 C 103.324219 103.027344 106.351562 101.652344 107.269531 99.136719 C 108.449219 95.90625 108.984375 92.660156 109.664062 89.296875 L 115.773438 59.046875 Z M 101.886719 67.734375 L 103.324219 58.558594 C 103.503906 57.425781 103.425781 56.054688 102.261719 55.445312 C 101.640625 56.382812 99.378906 56.929688 98.847656 57.976562 C 97.800781 61.058594 97.964844 64.296875 97.359375 67.46875 C 97.019531 69.261719 98.074219 70.34375 99.679688 70.207031 C 100.75 70.117188 101.605469 69.523438 101.886719 67.734375 Z M 101.886719 67.734375 " fill-opacity="1" fill-rule="nonzero"/></g><path fill="#16354b" d="M 69.886719 93.335938 C 69.824219 96.234375 67.21875 98.046875 65.183594 98.109375 C 62.636719 98.1875 60.039062 96.496094 59.800781 93.601562 C 59.46875 89.625 59.472656 85.695312 59.5 81.765625 C 59.515625 79.28125 61.300781 77.492188 63.617188 77.105469 C 67.242188 76.496094 70.207031 79.046875 70.125 82.757812 Z M 66.925781 82.753906 C 66.886719 81.144531 66.003906 80.058594 64.628906 80.125 C 63.417969 80.1875 62.523438 81.214844 62.5625 82.808594 L 62.828125 92.972656 C 62.863281 94.382812 64.011719 95.164062 65.160156 95.015625 C 67.769531 94.679688 67.011719 86.390625 66.925781 82.753906 Z M 66.925781 82.753906 " fill-opacity="1" fill-rule="nonzero"/><path fill="#16354b" d="M 52.808594 67.464844 C 52.9375 70.449219 51.171875 72.726562 48.554688 73.121094 C 45.808594 73.542969 43.046875 72.054688 42.375 68.996094 C 41.613281 65.546875 41.421875 62.09375 41.191406 58.460938 C 40.992188 55.316406 43.253906 52.785156 46.183594 52.457031 C 48.835938 52.160156 51.703125 54.210938 52.15625 57.273438 C 52.664062 60.703125 52.65625 64.015625 52.808594 67.464844 Z M 49.769531 68.511719 C 49.617188 63.785156 50.199219 54.585938 46.152344 55.453125 C 44.863281 55.726562 44.332031 57.058594 44.445312 58.511719 L 45.179688 68.050781 C 45.292969 69.507812 46.296875 70.207031 47.316406 70.222656 C 48.21875 70.234375 49.820312 70.144531 49.769531 68.511719 Z M 49.769531 68.511719 " fill-opacity="1" fill-rule="nonzero"/><path fill="#16354b" d="M 88.371094 58.53125 C 87.957031 65.335938 88.683594 72.777344 82.390625 73.199219 C 79.863281 73.367188 77.113281 71.691406 76.96875 68.753906 C 76.78125 64.984375 77.0625 61.332031 77.363281 57.632812 C 77.605469 54.613281 80.402344 52.402344 83.066406 52.464844 C 86.121094 52.53125 88.578125 55.199219 88.375 58.53125 Z M 84.671875 68.414062 L 85.339844 57.835938 C 85.4375 56.339844 84.132812 55.492188 83.058594 55.433594 C 79.070312 55.21875 80.519531 65.796875 80.039062 69.414062 C 81.605469 70.699219 83.691406 70.382812 84.671875 68.414062 Z M 84.671875 68.414062 " fill-opacity="1" fill-rule="nonzero"/><path fill="#16354b" d="M 101.140625 93.910156 C 100.6875 96.8125 98.0625 98.195312 95.820312 98.070312 C 93.363281 97.933594 90.847656 95.855469 91.164062 92.996094 L 92.363281 82.171875 C 92.601562 80.023438 93.996094 78.398438 95.347656 77.71875 C 97.296875 76.738281 99.375 76.738281 101.078125 78.015625 C 102.980469 79.441406 103.039062 81.808594 102.683594 84.082031 L 101.140625 93.914062 Z M 98.378906 92.996094 L 99.785156 82.640625 C 99.972656 81.25 99.332031 80.195312 98.101562 79.964844 C 97.242188 79.804688 95.800781 80.480469 95.636719 81.796875 L 94.25 92.992188 C 94.070312 94.429688 95.375 95.207031 96.460938 95.054688 C 97.144531 94.957031 98.199219 94.289062 98.375 92.996094 Z M 98.378906 92.996094 " fill-opacity="1" fill-rule="nonzero"/><path fill="#16354b" d="M 70.359375 57.976562 C 70.460938 64.054688 71.601562 73.679688 64.5625 73.21875 C 62.1875 73.0625 59.699219 71.199219 59.503906 68.359375 C 59.257812 64.683594 59.191406 61.0625 59.375 57.332031 C 59.523438 54.242188 62.425781 52.238281 65.082031 52.449219 C 67.949219 52.675781 70.308594 54.832031 70.363281 57.972656 Z M 66.996094 57.085938 C 66.773438 55.742188 64.980469 55.144531 64.074219 55.515625 C 63.25 55.855469 62.472656 56.722656 62.488281 57.96875 L 62.59375 68.03125 C 62.613281 69.5625 63.988281 70.347656 65.164062 70.164062 C 68.382812 69.671875 67.289062 58.851562 66.996094 57.085938 Z M 66.996094 57.085938 " fill-opacity="1" fill-rule="nonzero"/><path fill="#16354b" d="M 30.734375 73.160156 C 27.507812 73.351562 25.242188 71.378906 24.8125 68.601562 L 23.457031 59.789062 C 23.242188 58.371094 23 56.855469 23.570312 55.527344 C 24.527344 53.296875 27.058594 52.203125 29.15625 52.472656 C 31.375 52.757812 33.417969 54.421875 33.925781 56.882812 C 34.695312 60.601562 35.046875 64.265625 35.320312 68.109375 C 35.503906 70.703125 33.644531 72.984375 30.734375 73.160156 Z M 32.273438 68.4375 C 31.5625 63.160156 31.683594 54.082031 27.722656 55.574219 C 26.972656 55.859375 26.070312 56.839844 26.253906 58.140625 L 27.671875 68.101562 C 27.875 69.535156 28.945312 70.222656 30.082031 70.195312 C 30.75 70.179688 32.480469 69.976562 32.273438 68.4375 Z M 32.273438 68.4375 " fill-opacity="1" fill-rule="nonzero"/><path fill="#16354b" d="M 38.496094 92.402344 C 38.796875 95.207031 36.847656 97.605469 34.527344 98 C 31.722656 98.476562 28.867188 96.742188 28.40625 93.738281 L 26.722656 82.730469 C 26.46875 81.082031 26.96875 79.617188 27.863281 78.625 C 28.921875 77.449219 30.476562 76.804688 32.402344 77.085938 C 34.636719 77.414062 36.464844 79.195312 36.964844 81.445312 C 37.761719 85.066406 38.097656 88.667969 38.496094 92.402344 Z M 32.8125 94.828125 C 33.722656 95.371094 34.535156 94.921875 34.855469 94.625 C 35.144531 94.359375 35.523438 93.746094 35.433594 92.984375 L 34.1875 82.210938 C 34.054688 81.0625 33.089844 80.496094 32.503906 80.226562 C 31.921875 79.957031 29.921875 80.050781 29.886719 81.089844 C 29.769531 84.835938 30.675781 88.464844 31.082031 92.238281 C 31.1875 93.226562 31.792969 94.222656 32.8125 94.828125 Z M 32.8125 94.828125 " fill-opacity="1" fill-rule="nonzero"/><path fill="#16354b" d="M 54.4375 93.226562 C 53.851562 96.167969 51.785156 98.070312 49.222656 98.089844 C 46.789062 98.109375 44.523438 96.15625 44.183594 93.375 C 43.726562 89.65625 43.457031 85.96875 43.265625 82.148438 C 43.117188 79.148438 45.402344 76.953125 48.242188 76.996094 C 55.96875 77.105469 53.109375 87.359375 54.4375 93.226562 Z M 50.460938 81.886719 C 50.316406 80.5 48.988281 79.855469 47.972656 80.035156 C 47.136719 80.183594 46.164062 80.898438 46.199219 82.140625 C 46.304688 85.992188 46.640625 89.640625 47.203125 93.375 C 47.386719 94.605469 48.417969 95.058594 49.234375 95.0625 C 52.289062 95.070312 50.859375 85.664062 50.460938 81.886719 Z M 50.460938 81.886719 " fill-opacity="1" fill-rule="nonzero"/><path fill="#16354b" d="M 86.4375 82.808594 C 85.792969 90.289062 86.910156 97.644531 80.488281 98.0625 C 78.136719 98.214844 75.4375 96.273438 75.519531 93.539062 L 75.867188 82.199219 C 75.957031 79.234375 78.019531 77.191406 80.859375 77.015625 C 84.324219 76.804688 86.738281 79.332031 86.4375 82.808594 Z M 82.578125 92.628906 L 83.414062 82.820312 C 83.5625 81.101562 82.660156 80.015625 81.140625 80.078125 C 80.1875 80.117188 79.011719 80.652344 78.933594 82.179688 L 78.367188 93 C 78.285156 94.480469 79.484375 95.046875 80.523438 95.078125 C 81.703125 95.113281 82.425781 94.382812 82.578125 92.628906 Z M 82.578125 92.628906 " fill-opacity="1" fill-rule="nonzero"/></g></g></svg>