<svg width="309" height="988" viewBox="0 0 309 988" fill="none" xmlns="http://www.w3.org/2000/svg">
<g id="Rig">
<path id="Vector" d="M149.519 765.597C145.102 762.412 141.796 758.663 141.044 752.92C139.442 740.675 140.492 722.518 156.146 720.087C160.939 719.317 165.84 720.551 169.691 723.51C173.584 726.489 176.848 731.974 177.012 736.941C177.466 750.774 178.483 760.171 164.762 767.374C170.39 770.027 174.542 774.293 176.67 780.236C178.772 786.106 178.438 792.571 175.743 798.192C173.606 802.643 171.024 805.29 167.067 808.149C167.195 814.677 167.245 821.206 167.217 827.739C182.348 828.045 197.49 828.219 212.624 828.093C214.74 828.077 217.879 826.838 219.951 826.273C222.213 825.656 223.428 825.071 225.851 825.208C234.583 825.688 238.325 833.487 236.443 841.429C234.888 843.939 234.32 844.989 232.121 847.061C229.297 848.474 225.188 850.352 222.285 848.875C215.135 845.247 207.953 846.202 199.814 846.212L167.073 846.339L167.093 916.597C167.118 928.335 167.301 940.601 166.955 952.351C166.919 953.579 166.479 954.792 165.608 955.694C162.264 955.879 158.006 955.778 154.591 955.794L153.71 956.126C155.502 957.181 164.372 957.065 166.179 956.026L171.864 955.931C173.759 956.01 175.784 955.963 177.527 956.664C176.988 958.093 176.184 959.818 175.566 961.252L175.948 961.189C198.497 957.387 227.073 940.891 240.31 922.282C240.724 921.976 242.634 919.481 243.087 918.912C243.934 917.857 244.935 916.381 245.748 915.257C247.452 913.048 249.542 909.831 251.176 907.474C249.724 906.377 248.089 905.412 246.533 904.452C245.418 903.672 244.315 902.875 243.225 902.063C241.581 900.824 240.896 900.26 240.601 898.166C240.879 897.275 240.939 896.632 241.649 895.993C243.947 893.921 293.736 880.785 300.526 879.356C302.635 878.907 304.699 878.649 306.86 878.802C310.871 881.803 303.86 889.671 301.706 892.645C298.147 897.254 283.206 917.198 281.318 921.369C277.315 925.852 275.735 924.106 271.435 920.889C252.659 951.554 221.716 975.675 186.544 984.113C151.828 992.466 115.213 986.596 84.8507 967.807C64.6788 955.383 51.4325 940.849 38.5976 921.338L31.9483 925.641L31.1762 925.746C29.4789 925.425 28.6123 924.175 27.4251 922.883C21.7569 914.825 14.0559 903.202 8.08491 895.809C5.26371 891.901 0.035865 885.979 0 881.597C0.762658 879.894 0.299582 880.379 1.66245 879.451C7.56382 879.593 65.27 894.981 67.3249 897.09C67.9256 897.707 68.3887 898.693 68.2827 899.553C68.0153 901.731 65.8075 903.092 64.1799 904.257L60.7094 906.762L59.462 907.505C59.1825 908.808 59.4578 908.913 60.3471 910.29C60.586 910.659 60.8381 911.017 61.1034 911.366C61.509 911.919 62.9494 913.965 63.3297 914.361C64.2526 915.753 65.6804 918.11 66.8676 919.149C81.2653 939.542 107.787 956 132.695 961.105C133.121 961.194 133.557 961.152 133.99 961.126L134.085 960.345C133.232 959.28 132.697 958.726 132.227 957.413C135.619 955.594 139.834 955.937 143.716 955.689L144.071 954.998C143.742 954.355 143.435 953.711 143.127 953.057C141.747 950.131 142.744 858.067 142.775 846.365C127.766 846.112 112.07 846.112 97.0422 846.402C89.5907 846.544 90.4162 849.413 81.9784 849.255C77.6688 847.309 76.8059 846.297 73.9399 842.742C72.1751 837.727 72.4852 832.58 76.3138 828.53C80.7437 823.853 87.0865 824.755 92.4304 827.08C93.7062 827.634 95.6741 828.103 97.0728 828.182C110.367 828.061 123.747 828.161 137.031 827.808C138.487 827.934 141.231 827.882 142.792 827.908C142.612 821.564 142.794 814.524 142.836 808.127C139.822 806.002 137.499 803.387 135.186 800.56C131.937 794.042 130.626 787.819 133.005 780.648C134.965 774.931 139.094 770.211 144.5 767.511C145.976 766.768 147.935 766.119 149.519 765.597ZM161.362 759.749C168.947 756.442 168.905 750.7 169.177 743.37C169.489 734.937 166.813 727.66 157.118 728.161C154.643 729.036 151.484 730.708 150.646 733.324C147.253 743.939 145.887 760.587 161.362 759.749ZM156.745 800.861C163.762 799.838 168.636 793.341 167.653 786.322C166.67 779.298 160.2 774.388 153.172 775.332C146.087 776.281 141.128 782.815 142.118 789.892C143.109 796.969 149.671 801.894 156.745 800.861Z" fill="#1D3B60"/>
<path id="Vector_2" d="M148.14 480.374C160.719 479.035 169.369 485.184 170.649 498.16C171.903 510.875 170.989 523.467 156.546 527.66C134.439 531.309 130.439 506.085 136.267 490.227C138.105 485.226 143.276 482.117 148.14 480.374ZM142.939 494.505C142.156 505.19 139.666 520.622 154.96 519.806C159.048 518.063 159.972 516.969 162.238 513.069C162.533 502.687 165.27 487.384 150.156 488.209C146.101 489.903 145.357 490.941 142.939 494.505Z" fill="#1D3B60"/>
<path id="Vector_3" d="M150.985 160.266C155.062 159.894 158.37 159.963 162.176 161.725C166.563 163.777 169.934 167.514 171.523 172.089C173.661 178.196 173.843 192.184 170.678 198.002C167.632 203.602 164.527 205.709 158.858 207.629C146.52 209.734 137.203 202.064 136.362 189.652C135.476 176.571 136.267 164.524 150.985 160.266ZM156.88 199.859C164.741 196.42 164.62 191.209 164.832 183.491C165.054 175.358 162.535 167.703 153.008 168.106C145.472 170.246 144.427 176.37 144.348 183.265C144.239 192.849 145.719 200.111 156.88 199.859Z" fill="#1D3B60"/>
<path id="Vector_4" d="M150.68 400.195C154.399 399.876 157.742 400.134 161.162 401.734C165.604 403.839 168.99 407.672 170.53 412.34C172.598 418.418 172.85 432.624 169.518 438.339C166.167 444.089 163.151 445.959 157.225 447.772C147.527 448.966 137.762 443.926 135.979 433.638C133.637 420.122 134.256 403.748 150.68 400.195ZM154.893 440.007C162.743 437.907 163.715 431.996 163.8 424.772C163.897 416.439 162.677 408.638 152.757 408.046C144.954 409.602 143.403 415.468 143.314 422.561C143.196 431.943 144.058 439.302 154.893 440.007Z" fill="#1D3B60"/>
<path id="Vector_5" d="M151.318 240.409C169.044 238.351 175.074 250.626 174.137 266.315C173.491 277.128 171.122 283.799 159.916 287.68C155.796 288.089 152.459 288.203 148.54 286.534C144.065 284.597 140.58 280.911 138.898 276.335C136.638 270.327 136.521 256.551 139.445 250.563C142.261 244.799 145.679 242.515 151.318 240.409ZM158.12 279.838C168.215 275.269 165.974 264.301 165.345 254.746C161.974 249.351 159.865 247.857 153.302 248.264C145.769 251.458 145.612 257.273 145.473 264.488C145.296 273.595 147.895 280.436 158.12 279.838Z" fill="#1D3B60"/>
<path id="Vector_6" d="M154.861 320.057C163.408 319.378 172.91 325.521 174.075 334.359C175.984 348.847 175.961 364.218 158.559 367.986C148.687 368.316 139.897 362.887 138.58 352.461C136.804 338.395 137.71 322.873 154.861 320.057ZM147.255 333.958C146.317 339.867 145.057 351.167 148.734 356.201C150.248 358.241 152.54 359.563 155.064 359.851C156.172 359.986 158.267 359.847 159.404 359.665C168.363 354.811 168.206 341.845 164.791 333.178C162.979 328.582 157.63 327.952 153.097 328.475C150.389 330.172 149.2 331.384 147.255 333.958Z" fill="#1D3B60"/>
<path id="Vector_7" d="M152.066 80.1494C161.27 79.3515 170.87 84.7241 172.381 94.4272C174.557 108.411 174.116 124.169 157.306 127.944C147.885 128.503 138.841 123.46 137.167 113.527C134.869 99.8926 135.593 83.7628 152.066 80.1494ZM155.236 120.084C159.512 119.153 161.263 118.216 163.723 114.415C163.929 114.096 164.13 113.773 164.326 113.447C164.681 107.092 164.881 101.068 164.297 94.6904C161.37 90.0355 160.19 88.7541 154.531 88.0638C143.213 89.8562 143.972 101.439 144.917 110.516C145.526 116.357 149.632 119.385 155.236 120.084Z" fill="#1D3B60"/>
<path id="Vector_8" d="M153.268 560.039C162.193 559.564 170.786 566.33 171.936 575.31C173.75 589.48 173.277 604.831 156.068 608.016C145.052 607.937 137.408 602.337 136.107 590.846C134.517 576.819 136.241 562.053 153.268 560.039ZM157.106 599.742C166.128 594.595 165.781 582.414 162.57 573.37C160.994 568.935 155.565 567.943 151.145 568.386C148.093 570.063 145.604 571.777 144.882 575.453C142.872 585.673 142.221 601.414 157.106 599.742Z" fill="#1D3B60"/>
<path id="Vector_9" d="M155.836 640.158C159.786 639.926 162.771 640 166.466 641.777C170.891 643.907 174.25 647.757 175.759 652.434C177.672 658.235 177.636 672.621 174.503 678.19C171.237 683.996 168.175 685.858 162.289 687.772C157.617 688.252 153.825 688.104 149.604 685.705C145.37 683.258 142.305 679.202 141.11 674.462C139.504 668.313 139.689 654.006 143.476 648.611C147.164 643.359 149.911 641.592 155.836 640.158ZM149.56 653.637C147.923 663.472 145.44 679.487 159.47 680.03C167.259 678.185 168.678 672.336 168.908 665.096C169.184 656.384 168.172 648.764 157.893 648.058C153.277 649.07 152.607 650.156 149.56 653.637Z" fill="#1D3B60"/>
<path id="Vector_10" d="M154.351 0.00349456C163.172 -0.173535 171.558 6.39464 172.655 15.34C174.415 29.7085 173.869 45.136 156.331 48.0616C145.726 47.8638 138.004 42.0289 136.883 31.0429C135.425 16.751 136.86 1.9177 154.351 0.00349456ZM157.639 39.7916C160.649 38.208 161.939 37.1791 163.979 34.4157C165.145 28.7625 166.168 17.3618 162.804 12.3535C161.408 10.2484 159.216 8.80201 156.731 8.34713C155.545 8.13187 153.47 8.24356 152.232 8.30937C142.838 12.7006 143.455 25.3477 146.139 34.099C147.605 38.8796 152.957 40.1821 157.639 39.7916Z" fill="#1D3B60"/>
<path id="Vector_11" d="M154.456 612.024C155.143 611.987 155.831 611.977 156.519 612.003C163.968 612.277 161.945 626.816 161.338 631.594C161.07 633.703 160.392 634.442 158.823 635.776C151.264 636.809 150.709 631.399 150.789 624.955C150.848 620.071 150.499 615.315 154.456 612.024Z" fill="#4A7AB6"/>
<path id="Vector_12" d="M151.203 372.059C161.075 370.569 158.838 384.402 158.492 390.474C158.34 393.133 157.6 394.215 155.66 395.951C145.921 396.347 147.985 387.335 147.891 380.139C147.845 376.603 148.468 374.361 151.203 372.059Z" fill="#4A7AB6"/>
<path id="Vector_13" d="M151.853 451.637C160.692 452.327 158.44 466.754 157.421 472.769C157.097 474.685 155.333 475.466 153.735 476.244C144.877 475.911 147.23 461.93 148.028 455.974C148.327 453.739 150.038 452.692 151.853 451.637Z" fill="#4A7AB6"/>
<path id="Vector_14" d="M151.782 291.929C153.867 291.844 156.463 291.949 157.524 294.182C160.057 299.515 159.336 307.027 158.361 312.718C158.054 314.507 156.611 315.276 155.224 316.065C145.855 316.823 148.392 303.824 148.554 297.911C148.636 294.896 149.474 293.742 151.782 291.929Z" fill="#4A7AB6"/>
<path id="Vector_15" d="M152.861 691.579C154.928 691.859 157.352 692.882 158.018 695.091C159.709 700.708 159.694 707.948 157.999 713.564C157.552 715.046 155.701 715.721 154.409 716.248C152.691 716.101 150.481 715.621 149.69 713.838C147.359 708.591 147.961 701.435 148.941 695.888C149.361 693.504 150.99 692.639 152.861 691.579Z" fill="#4A7AB6"/>
<path id="Vector_16" d="M153.473 211.76C159.715 211.79 160.418 217.798 160.266 222.723C160.105 227.982 161.075 233.563 155.932 236.194C146.64 236.08 149.427 222.946 149.876 216.757C150.06 214.212 151.473 213.103 153.473 211.76Z" fill="#4A7AB6"/>
<path id="Vector_17" d="M152.902 51.9866C159.505 51.7087 160.324 56.5645 160.265 62.3015C160.213 67.3065 161.001 73.3904 156.23 76.0899C154.575 76.1295 152.12 75.9639 151.178 74.3845C148.148 69.2998 149.205 61.6075 150.011 55.9596C150.278 54.0912 151.533 53.0867 152.902 51.9866Z" fill="#4A7AB6"/>
<path id="Vector_18" d="M151.447 531.894C151.855 531.894 152.263 531.905 152.671 531.926C160.891 532.327 158.486 546.829 157.948 552.239C157.778 553.953 156.599 554.897 155.328 555.931C154.468 556.041 153.6 556.068 152.735 556.01C145.813 555.477 147.707 541.033 148.243 536.414C148.531 533.935 149.488 533.292 151.447 531.894Z" fill="#4A7AB6"/>
<path id="Vector_19" d="M154.445 131.619C154.624 131.655 154.802 131.695 154.978 131.739C162.987 133.765 160.648 146.388 159.678 152.625C159.38 154.537 157.797 155.401 156.185 156.215C149.113 155.804 149.557 149.103 149.648 143.578C149.737 138.154 149.38 134.236 154.445 131.619Z" fill="#4A7AB6"/>
<path id="Vector 1" d="M157.07 957.645C157.192 957.818 157.655 958.515 157.874 959.092C158.102 959.691 156.535 958.13 155.24 957.676C154.232 957.405 153.69 957.188 153.633 957.12C153.772 957.097 154.251 957.096 155.122 957.045" stroke="#1D3B60" stroke-width="16" stroke-linejoin="round"/>
<path id="Vector 2" d="M153.343 955.49C153.329 955.49 153.676 955.49 154.635 955.632C156.084 956.059 157.19 956.537 157.822 956.821C158.217 956.92 158.764 956.928 159.446 956.885" stroke="#1D3B60" stroke-width="16" stroke-linejoin="round"/>
<path id="Vector 3" d="M159.446 956.885C159.431 956.885 158.643 956.857 157.157 956.766C155.844 956.602 154.972 956.421 154.506 956.273C154.286 956.204 154.099 956.148 153.529 955.987" stroke="#1D3B60" stroke-width="16" stroke-linejoin="round"/>
<path id="Vector 4" d="M159.43 956.26C159.43 956.253 159.445 956.408 159.473 956.597C159.512 956.285 159.6 955.802 159.785 955.373C159.826 955.269 159.857 955.168 159.914 954.947" stroke="#1D3B60" stroke-linejoin="round"/>
<path id="Vector 5" d="M164.783 955.623C164.79 955.623 164.898 955.66 165.1 955.739C165.284 955.826 165.459 955.933 165.623 956.057C165.701 956.12 165.772 956.184 166.019 956.45" stroke="#1D3B60" stroke-linejoin="round"/>
<path id="Vector 6" d="M165.531 955.088C165.531 955.091 165.531 955.093 165.531 955.239C165.531 955.386 165.531 955.677 165.51 955.985" stroke="#1D3B60" stroke-linejoin="round"/>
<path id="Vector 7" d="M165.659 955.78C165.663 955.784 165.713 955.832 165.807 955.923C165.902 956.011 166.002 956.097 166.113 956.195C166.173 956.252 166.241 956.324 166.388 956.478" stroke="#1D3B60" stroke-linejoin="round"/>
</g>
</svg>
